P2
72 40
255
255 255 255 255 255 255 255 255 255 255 255 255 255 170 56 0 0 0 0 0 0 0 0 0 0 56 170 255 255 255 255 255 255 255 255 255 255 255 255 255 
255 255 255 255 255 255 255 255 255 255 255 113 0 0 0 0 0 0 0 0 0 0 0 0 0 0 0 0 113 255 255 255 255 255 255 255 255 255 255 255 
255 255 255 255 255 255 255 255 255 113 0 0 0 0 0 0 0 0 0 0 0 0 0 0 0 0 0 0 0 0 113 255 255 255 255 255 255 255 255 255 
255 255 255 255 255 255 255 226 28 0 0 0 0 0 0 0 0 0 0 0 0 0 0 0 0 0 0 0 0 0 0 28 226 255 255 255 255 255 255 255 
255 255 255 255 255 255 198 0 0 0 0 0 0 0 0 0 0 0 0 0 0 0 0 0 0 0 0 0 0 0 0 0 0 198 255 255 255 255 255 255 
255 255 255 255 255 170 0 0 0 0 0 0 0 0 0 0 0 0 0 0 0 0 0 0 0 0 0 0 0 0 0 0 0 0 170 255 255 255 255 255 
255 255 255 255 226 0 0 0 0 0 0 0 0 0 0 0 0 0 0 0 0 0 0 0 0 0 0 0 0 0 0 0 0 0 0 226 255 255 255 255 
255 255 255 255 0 0 0 0 0 0 0 0 0 0 0 0 0 0 0 0 0 0 0 0 0 0 0 0 0 0 0 0 0 0 0 0 255 255 255 255 
255 255 255 56 0 0 0 0 0 0 0 0 0 0 0 0 0 0 0 0 0 0 0 0 0 0 0 0 0 0 0 0 0 0 0 0 56 255 255 255 
255 255 198 0 0 0 0 0 0 0 0 0 0 0 0 0 0 0 85 85 85 85 0 0 0 0 0 0 0 0 0 0 0 0 0 0 0 198 255 255 
255 255 28 0 0 0 0 0 0 0 0 0 0 0 0 113 255 255 255 255 255 255 255 255 113 0 0 0 0 0 0 0 0 0 0 0 0 28 255 255 
255 198 0 0 0 0 0 0 0 0 0 0 0 28 226 255 255 255 255 255 255 255 255 255 255 226 28 0 0 0 0 0 0 0 0 0 0 0 198 255 
255 56 0 0 0 0 0 0 0 0 0 0 28 255 255 255 255 255 255 255 255 255 255 255 255 255 255 28 0 0 0 0 0 0 0 0 0 0 56 255 
255 0 0 0 0 0 0 0 0 0 0 0 255 255 255 255 255 255 255 255 255 255 255 255 255 255 255 255 0 0 0 0 0 0 0 0 0 0 0 255 
170 0 0 0 0 0 0 0 0 0 0 198 255 255 255 255 255 255 255 255 255 255 255 255 255 255 255 255 198 0 0 0 0 0 0 0 0 0 0 170 
85 0 0 0 0 0 0 0 0 0 28 255 255 255 255 255 255 255 255 255 255 255 255 255 255 255 255 255 255 28 0 0 0 0 0 0 0 0 0 85 
28 0 0 0 0 0 0 0 0 0 141 255 255 255 255 255 255 255 255 255 255 255 255 255 255 255 255 255 255 141 0 0 0 0 0 0 0 0 0 28 
0 0 0 0 0 0 0 0 0 0 226 255 255 255 255 255 255 255 255 255 255 255 255 255 255 255 255 255 255 226 0 0 0 0 0 0 0 0 0 0 
0 0 0 0 0 0 0 0 0 0 255 255 255 255 255 255 255 255 255 255 255 255 255 255 255 255 255 255 255 255 0 0 0 0 0 0 0 0 0 0 
0 0 0 0 0 0 0 0 0 0 255 255 255 255 255 255 255 255 255 255 255 255 255 255 255 255 255 255 255 255 0 0 0 0 0 0 0 0 0 0 
0 0 0 0 0 0 0 0 0 0 255 255 255 255 255 255 255 255 255 255 255 255 255 255 255 255 255 255 255 255 0 0 0 0 0 0 0 0 0 0 
0 0 0 0 0 0 0 0 0 0 226 255 255 255 255 255 255 255 255 255 255 255 255 255 255 255 255 255 255 226 0 0 0 0 0 0 0 0 0 0 
28 0 0 0 0 0 0 0 0 0 141 255 255 255 255 255 255 255 255 255 255 255 255 255 255 255 255 255 255 141 0 0 0 0 0 0 0 0 0 28 
85 0 0 0 0 0 0 0 0 0 28 255 255 255 255 255 255 255 255 255 255 255 255 255 255 255 255 255 255 28 0 0 0 0 0 0 0 0 0 85 
170 0 0 0 0 0 0 0 0 0 0 198 255 255 255 255 255 255 255 255 255 255 255 255 255 255 255 255 198 0 0 0 0 0 0 0 0 0 0 170 
255 0 0 0 0 0 0 0 0 0 0 0 255 255 255 255 255 255 255 255 255 255 255 255 255 255 255 255 0 0 0 0 0 0 0 0 0 0 0 255 
255 56 0 0 0 0 0 0 0 0 0 0 28 255 255 255 255 255 255 255 255 255 255 255 255 255 255 28 0 0 0 0 0 0 0 0 0 0 56 255 
255 198 0 0 0 0 0 0 0 0 0 0 0 28 226 255 255 255 255 255 255 255 255 255 255 226 28 0 0 0 0 0 0 0 0 0 0 0 198 255 
255 255 28 0 0 0 0 0 0 0 0 0 0 0 0 113 255 255 255 255 255 255 255 255 113 0 0 0 0 0 0 0 0 0 0 0 0 28 255 255 
255 255 198 0 0 0 0 0 0 0 0 0 0 0 0 0 0 0 85 85 85 85 0 0 0 0 0 0 0 0 0 0 0 0 0 0 0 198 255 255 
255 255 255 56 0 0 0 0 0 0 0 0 0 0 0 0 0 0 0 0 0 0 0 0 0 0 0 0 0 0 0 0 0 0 0 0 56 255 255 255 
255 255 255 255 0 0 0 0 0 0 0 0 0 0 0 0 0 0 0 0 0 0 0 0 0 0 0 0 0 0 0 0 0 0 0 0 255 255 255 255 
255 255 255 255 226 0 0 0 0 0 0 0 0 0 0 0 0 0 0 0 0 0 0 0 0 0 0 0 0 0 0 0 0 0 0 226 255 255 255 255 
255 255 255 255 255 170 0 0 0 0 0 0 0 0 0 0 0 0 0 0 0 0 0 0 0 0 0 0 0 0 0 0 0 0 170 255 255 255 255 255 
255 255 255 255 255 255 198 0 0 0 0 0 0 0 0 0 0 0 0 0 0 0 0 0 0 0 0 0 0 0 0 0 0 198 255 255 255 255 255 255 
255 255 255 255 255 255 255 226 28 0 0 0 0 0 0 0 0 0 0 0 0 0 0 0 0 0 0 0 0 0 0 28 226 255 255 255 255 255 255 255 
255 255 255 255 255 255 255 255 255 113 0 0 0 0 0 0 0 0 0 0 0 0 0 0 0 0 0 0 0 0 113 255 255 255 255 255 255 255 255 255 
255 255 255 255 255 255 255 255 255 255 255 113 0 0 0 0 0 0 0 0 0 0 0 0 0 0 0 0 113 255 255 255 255 255 255 255 255 255 255 255 
255 255 255 255 255 255 255 255 255 255 255 255 198 0 0 0 0 0 0 0 0 0 0 0 0 0 0 198 255 255 255 255 255 255 255 255 255 255 255 255 
255 255 255 255 255 255 255 255 255 255 226 28 0 0 0 0 0 0 0 0 0 0 0 0 0 0 0 0 28 226 255 255 255 255 255 255 255 255 255 255 
255 255 255 255 255 255 255 255 255 141 0 0 0 0 0 0 0 0 0 0 0 0 0 0 0 0 0 0 0 0 141 255 255 255 255 255 255 255 255 255 
255 255 255 255 255 255 255 255 85 0 0 0 0 0 0 0 0 0 0 0 0 0 0 0 0 0 0 0 0 0 0 85 255 255 255 255 255 255 255 255 
255 255 255 255 255 255 255 85 0 0 0 0 0 0 0 28 113 198 255 255 255 255 198 113 28 0 0 0 0 0 0 0 85 255 255 255 255 255 255 255 
255 255 255 255 255 255 85 0 0 0 0 0 0 28 198 255 255 255 255 255 255 255 255 255 255 198 28 0 0 0 0 0 0 85 255 255 255 255 255 255 
255 255 255 255 255 170 0 0 0 0 0 0 113 255 255 255 255 255 255 255 255 255 255 255 255 255 255 113 0 0 0 0 0 0 170 255 255 255 255 255 
255 255 255 255 255 0 0 0 0 0 0 170 255 255 255 255 255 255 255 255 255 255 255 255 255 255 255 255 170 0 0 0 0 0 0 255 255 255 255 255 
255 255 255 255 113 0 0 0 0 0 170 255 255 255 255 255 255 255 255 255 255 255 255 255 255 255 255 255 255 170 0 0 0 0 0 113 255 255 255 255 
255 255 255 255 0 0 0 0 0 85 255 255 255 255 255 255 255 255 255 255 255 255 255 255 255 255 255 255 255 255 85 0 0 0 0 0 255 255 255 255 
255 255 255 141 0 0 0 0 0 255 255 255 255 255 255 255 255 255 255 255 255 255 255 255 255 255 255 255 255 255 255 0 0 0 0 0 141 255 255 255 
255 255 255 28 0 0 0 0 113 255 255 255 255 255 255 255 255 255 255 255 255 255 255 255 255 255 255 255 255 255 255 113 0 0 0 0 28 255 255 255 
255 255 255 0 0 0 0 0 255 255 255 255 255 255 255 255 255 255 255 255 255 255 255 255 255 255 255 255 255 255 255 255 0 0 0 0 0 255 255 255 
255 255 226 0 0 0 0 0 255 255 255 255 255 255 255 255 255 255 255 255 255 255 255 255 255 255 255 255 255 255 255 255 0 0 0 0 0 226 255 255 
255 255 170 0 0 0 0 85 255 255 255 255 255 255 255 255 255 255 255 255 255 255 255 255 255 255 255 255 255 255 255 255 85 0 0 0 0 170 255 255 
255 255 170 0 0 0 0 85 255 255 255 255 255 255 255 255 255 255 255 255 255 255 255 255 255 255 255 255 255 255 255 255 85 0 0 0 0 170 255 255 
255 255 141 0 0 0 0 113 255 255 255 255 255 255 255 255 255 255 255 255 255 255 255 255 255 255 255 255 255 255 255 255 85 0 0 0 0 170 255 255 
255 255 170 0 0 0 0 85 255 255 255 255 255 255 255 255 255 255 255 255 255 255 255 255 255 255 255 255 255 255 255 255 85 0 0 0 0 170 255 255 
255 255 170 0 0 0 0 85 255 255 255 255 255 255 255 255 255 255 255 255 255 255 255 255 255 255 255 255 255 255 255 255 85 0 0 0 0 170 255 255 
255 255 226 0 0 0 0 0 255 255 255 255 255 255 255 255 255 255 255 255 255 255 255 255 255 255 255 255 255 255 255 255 0 0 0 0 0 226 255 255 
255 255 255 0 0 0 0 0 255 255 255 255 255 255 255 255 255 255 255 255 255 255 255 255 255 255 255 255 255 255 255 255 0 0 0 0 0 255 255 255 
255 255 255 28 0 0 0 0 113 255 255 255 255 255 255 255 255 255 255 255 255 255 255 255 255 255 255 255 255 255 255 113 0 0 0 0 28 255 255 255 
255 255 255 141 0 0 0 0 0 255 255 255 255 255 255 255 255 255 255 255 255 255 255 255 255 255 255 255 255 255 255 0 0 0 0 0 141 255 255 255 
255 255 255 255 0 0 0 0 0 85 255 255 255 255 255 255 255 255 255 255 255 255 255 255 255 255 255 255 255 255 85 0 0 0 0 0 255 255 255 255 
255 255 255 255 113 0 0 0 0 0 170 255 255 255 255 255 255 255 255 255 255 255 255 255 255 255 255 255 255 170 0 0 0 0 0 113 255 255 255 255 
255 255 255 255 255 0 0 0 0 0 0 170 255 255 255 255 255 255 255 255 255 255 255 255 255 255 255 255 170 0 0 0 0 0 0 255 255 255 255 255 
255 255 255 255 255 170 0 0 0 0 0 0 141 255 255 255 255 255 255 255 255 255 255 255 255 255 255 113 0 0 0 0 0 0 170 255 255 255 255 255 
255 255 255 255 255 255 85 0 0 0 0 0 0 28 198 255 255 255 255 255 255 255 255 255 255 198 28 0 0 0 0 0 0 85 255 255 255 255 255 255 
255 255 255 255 255 255 255 85 0 0 0 0 0 0 0 28 113 198 255 255 255 255 198 113 28 0 0 0 0 0 0 0 85 255 255 255 255 255 255 255 
255 255 255 255 255 255 255 255 85 0 0 0 0 0 0 0 0 0 0 0 0 0 0 0 0 0 0 0 0 0 0 85 255 255 255 255 255 255 255 255 
255 255 255 255 255 255 255 255 255 113 0 0 0 0 0 0 0 0 0 0 0 0 0 0 0 0 0 0 0 0 113 255 255 255 255 255 255 255 255 255 
255 255 255 255 255 255 255 255 255 255 226 28 0 0 0 0 0 0 0 0 0 0 0 0 0 0 0 0 28 226 255 255 255 255 255 255 255 255 255 255 
255 255 255 255 255 255 255 255 255 255 255 255 198 56 0 0 0 0 0 0 0 0 0 0 0 0 56 198 255 255 255 255 255 255 255 255 255 255 255 255 
255 255 255 255 255 255 255 255 255 255 255 255 255 255 255 170 85 0 0 0 0 0 0 85 170 255 255 255 255 255 255 255 255 255 255 255 255 255 255 255 
